<?xml version="1.0" standalone="no"?>
<!DOCTYPE svg PUBLIC "-//W3C//DTD SVG 20010904//EN"
 "http://www.w3.org/TR/2001/REC-SVG-20010904/DTD/svg10.dtd">
<svg version="1.0" xmlns="http://www.w3.org/2000/svg"
 width="1080.000000pt" height="1080.000000pt" viewBox="0 0 1080.000000 1080.000000"
 preserveAspectRatio="xMidYMid meet">
<metadata>
Created by potrace 1.14, written by Peter Selinger 2001-2017
</metadata>
<g transform="translate(0.000000,1080.000000) scale(0.100000,-0.100000)"
fill="#000000" stroke="none">
<path d="M5307 10654 c-1 -1 -78 -4 -172 -8 -93 -4 -183 -8 -200 -10 -16 -2
-59 -7 -95 -10 -36 -4 -92 -11 -125 -16 -33 -5 -82 -11 -110 -15 -27 -3 -57
-8 -65 -10 -8 -3 -31 -7 -50 -9 -46 -6 -272 -53 -324 -67 -23 -6 -48 -13 -57
-14 -83 -16 -482 -141 -574 -180 -16 -7 -61 -25 -100 -40 -75 -30 -139 -58
-220 -96 -27 -12 -52 -23 -55 -24 -15 -2 -269 -136 -383 -202 -152 -86 -382
-238 -524 -345 -54 -40 -100 -75 -103 -78 -3 -3 -43 -37 -90 -75 -268 -219
-533 -488 -754 -765 -38 -47 -76 -94 -85 -105 -23 -28 -128 -175 -188 -265
-320 -473 -580 -1056 -719 -1610 -40 -163 -78 -338 -90 -420 -3 -19 -9 -60
-14 -90 -5 -30 -12 -75 -15 -100 -3 -25 -7 -61 -10 -80 -3 -19 -7 -62 -10 -95
-3 -33 -8 -91 -12 -130 -9 -99 -10 -671 0 -785 9 -111 15 -171 22 -220 3 -19
7 -57 11 -85 14 -126 57 -353 99 -530 15 -60 28 -117 30 -126 15 -71 143 -460
155 -473 5 -5 78 14 167 42 134 43 209 65 258 78 6 1 57 17 114 34 57 17 111
33 120 35 9 2 97 24 196 49 289 73 594 140 775 171 19 3 95 17 169 30 73 13
136 24 140 23 3 -1 22 2 41 5 19 4 51 9 70 11 19 3 82 12 140 20 58 8 134 18
170 21 36 4 67 8 70 10 3 2 41 6 85 9 44 4 91 9 105 11 14 2 57 6 95 10 39 3
88 8 110 10 22 2 81 7 130 10 50 4 113 8 140 10 28 2 122 7 210 10 88 4 187 9
220 10 157 9 835 3 967 -8 21 -2 43 0 49 3 10 7 15 402 5 460 -2 14 -7 61 -11
105 -7 81 -10 103 -20 185 -15 119 -64 372 -75 390 -7 12 -12 12 -27 -1 -56
-49 -236 -122 -332 -135 -122 -16 -209 -11 -351 21 -43 9 -143 53 -205 89 -75
44 -249 208 -242 229 7 22 130 97 211 128 294 114 630 52 856 -157 33 -31 60
-51 60 -44 0 42 -202 614 -225 638 -2 2 -28 -12 -59 -32 -321 -205 -741 -161
-1016 105 -31 30 -65 68 -78 85 l-22 32 33 25 c82 62 242 130 340 145 103 14
277 7 360 -17 131 -36 251 -104 345 -192 23 -23 42 -38 42 -35 0 9 -105 213
-145 281 -19 33 -38 67 -42 76 -20 40 -149 239 -155 239 -3 0 -19 -11 -35 -23
-67 -56 -224 -131 -318 -152 -120 -27 -303 -24 -382 6 -15 6 -28 10 -28 9 0
-7 -73 19 -127 46 -97 47 -165 95 -228 159 l-55 56 30 26 c104 87 249 159 380
186 69 15 254 16 320 3 93 -20 224 -73 287 -117 14 -11 29 -19 33 -19 9 0
-184 251 -260 336 -5 6 -48 54 -95 107 l-84 95 -77 -76 c-111 -113 -233 -178
-378 -206 -69 -13 -195 -14 -265 -1 -60 10 -169 52 -230 87 l-55 32 30 40
c180 246 486 355 769 272 l85 -24 -105 100 c-57 55 -162 149 -232 209 -101 85
-132 107 -150 103 -13 -3 -34 -7 -48 -10 -14 -2 -48 -8 -77 -12 -74 -13 -204
-5 -293 17 -230 58 -417 203 -528 411 -31 57 -82 186 -82 206 0 1 12 5 28 10
15 4 29 8 32 9 61 19 256 22 319 6 20 -6 49 -12 66 -15 149 -27 364 -175 466
-322 38 -55 94 -168 110 -222 11 -37 20 -46 78 -79 36 -20 119 -69 184 -110
65 -40 121 -73 124 -73 3 0 -7 16 -22 35 -38 50 -83 154 -105 244 -28 111 -22
276 15 386 27 83 92 205 109 205 5 0 30 -17 55 -37 280 -224 357 -591 194
-918 -38 -76 -40 -66 24 -111 47 -34 237 -187 273 -221 19 -17 36 -31 37 -29
2 2 -5 23 -15 47 -11 24 -23 62 -27 84 -5 22 -10 47 -13 55 -2 8 -5 60 -6 115
-5 195 67 376 206 519 l47 48 29 -33 c70 -80 127 -193 157 -309 18 -67 24
-215 12 -285 -21 -131 -97 -289 -182 -378 -15 -15 -25 -31 -23 -36 2 -4 51
-59 110 -122 59 -63 125 -138 149 -167 23 -29 43 -51 45 -50 1 2 4 46 5 98 4
237 114 440 313 581 38 27 72 49 76 49 10 0 47 -70 66 -125 58 -170 56 -345
-7 -513 -41 -111 -160 -266 -247 -322 l-23 -15 27 -40 c50 -74 145 -227 165
-267 11 -22 23 -38 26 -35 3 3 7 25 9 48 11 113 58 244 121 337 65 96 248 252
275 236 12 -8 66 -125 74 -162 54 -241 24 -433 -97 -612 -50 -75 -142 -168
-193 -197 -14 -8 -13 -18 18 -93 53 -133 112 -305 144 -420 44 -157 42 -146
75 -310 26 -125 30 -144 42 -233 8 -57 11 -57 19 -2 22 137 117 457 185 622
l29 71 -56 38 c-78 51 -131 102 -154 148 -69 134 -64 271 16 439 51 107 45
103 107 70 128 -67 210 -202 221 -365 2 -21 5 -38 8 -38 3 0 22 31 43 68 20
37 55 94 77 127 22 33 42 65 45 71 3 5 -29 46 -72 90 -180 183 -226 431 -122
662 l28 63 28 -18 c115 -71 203 -171 250 -281 27 -62 49 -174 47 -240 -1 -50
2 -61 11 -50 7 7 44 49 82 93 39 44 91 102 117 128 l46 49 -41 46 c-48 55
-113 185 -128 257 -18 88 -8 230 22 317 24 70 90 181 124 209 42 35 189 -199
211 -335 14 -90 6 -209 -20 -283 -13 -40 -23 -73 -20 -73 2 0 34 26 70 58 37
32 99 82 137 112 39 29 74 57 78 61 5 4 -7 40 -26 80 -106 222 -71 475 91 660
50 56 120 106 131 93 5 -5 23 -36 40 -70 92 -183 86 -402 -16 -571 -18 -31
-32 -57 -31 -58 2 -2 37 19 78 46 41 28 107 68 147 90 67 37 73 43 89 92 9 29
25 64 36 80 11 15 17 27 13 27 -11 0 59 91 109 142 102 103 234 170 381 193
43 7 147 8 180 1 11 -2 39 -7 63 -11 42 -7 43 -8 37 -38 -10 -51 -73 -177
-116 -235 -85 -112 -227 -204 -372 -242 -84 -21 -219 -24 -299 -5 -60 14 -55
16 -137 -52 -134 -112 -307 -279 -276 -268 152 58 349 38 501 -50 60 -35 184
-158 184 -184 0 -13 -19 -28 -63 -49 -239 -118 -501 -73 -688 118 l-57 57 -55
-61 c-109 -121 -314 -376 -302 -376 3 0 22 11 43 23 95 60 225 96 349 95 161
-1 299 -53 441 -165 l22 -18 -33 -35 c-152 -161 -397 -239 -612 -195 -90 19
-212 71 -267 115 -20 17 -40 30 -45 30 -12 0 -142 -216 -219 -365 l-68 -130
57 51 c74 65 192 127 287 149 71 16 214 22 269 11 97 -20 226 -76 289 -124
l22 -17 -42 -51 c-152 -180 -412 -269 -646 -219 -76 15 -182 59 -233 96 -17
12 -34 18 -39 13 -20 -20 -107 -256 -163 -442 l-26 -83 57 49 c90 76 130 99
231 136 199 72 416 42 603 -81 43 -29 42 -34 -24 -103 -106 -112 -221 -173
-388 -205 -53 -11 -178 -6 -242 9 -73 17 -181 62 -228 96 -17 12 -30 19 -30
15 0 -3 -11 -61 -24 -128 -14 -67 -27 -144 -31 -172 -3 -27 -8 -63 -10 -80
-14 -109 -18 -174 -20 -372 l-2 -222 46 -5 c25 -4 64 -8 86 -10 74 -8 160 -18
179 -22 10 -2 44 -6 75 -9 31 -4 63 -8 71 -10 8 -2 35 -7 60 -10 25 -3 70 -10
100 -15 97 -16 114 -19 155 -25 22 -3 63 -10 90 -15 28 -5 64 -12 80 -15 17
-3 54 -10 83 -15 30 -5 61 -12 70 -14 10 -3 33 -8 52 -10 19 -3 50 -10 68 -15
18 -5 35 -10 37 -10 3 0 18 -2 33 -5 15 -3 38 -8 52 -10 14 -2 48 -10 75 -16
28 -6 57 -13 65 -15 855 -186 1891 -543 2730 -938 73 -35 100 -36 100 -3 0 6
11 28 25 48 14 20 25 42 25 48 0 6 10 27 23 48 24 39 130 277 167 372 11 30
25 64 29 75 40 88 161 469 187 585 2 11 6 28 8 37 5 20 45 196 52 228 4 21 24
135 29 170 2 11 6 34 9 50 3 17 8 53 12 80 3 28 8 58 10 68 2 10 6 53 10 95 3
42 8 79 9 82 7 12 19 319 18 495 0 166 -10 421 -18 465 -2 8 -6 49 -10 90 -3
41 -8 86 -10 100 -2 14 -7 45 -10 70 -5 38 -14 95 -30 185 -33 193 -100 466
-163 665 -42 129 -105 310 -122 345 -5 11 -28 65 -50 120 -167 402 -433 850
-719 1210 -280 353 -683 741 -1018 980 -97 69 -360 243 -433 286 -542 317
-1153 542 -1750 644 -52 9 -106 18 -119 20 -80 14 -143 22 -241 30 -41 4 -86
8 -100 11 -51 8 -535 24 -543 18z"/>
<path d="M3978 3835 c-2 -1 -82 -6 -178 -10 -96 -4 -193 -8 -215 -10 -22 -2
-78 -6 -125 -9 -47 -4 -105 -9 -130 -11 -25 -2 -81 -6 -125 -9 -44 -4 -91 -8
-105 -11 -14 -2 -52 -7 -85 -10 -33 -3 -67 -8 -75 -10 -8 -2 -46 -6 -85 -10
-38 -3 -77 -8 -85 -10 -8 -2 -40 -6 -71 -10 -31 -3 -65 -7 -75 -9 -11 -2 -40
-6 -65 -10 -52 -8 -48 -7 -219 -36 -69 -11 -138 -23 -155 -26 -16 -3 -37 -7
-45 -9 -8 -2 -31 -7 -50 -10 -19 -3 -98 -20 -175 -36 -77 -17 -151 -32 -165
-35 -14 -3 -41 -9 -60 -14 -19 -5 -46 -11 -60 -14 -71 -12 -340 -84 -340 -90
0 -2 64 -4 143 -6 78 -1 171 -3 207 -5 158 -6 399 -17 440 -20 25 -2 86 -6
135 -9 149 -9 402 -29 510 -40 22 -3 74 -7 115 -11 41 -3 82 -8 90 -10 8 -2
47 -7 85 -10 93 -9 109 -11 255 -29 69 -9 143 -18 165 -21 66 -8 117 -16 185
-26 36 -6 80 -12 97 -15 18 -2 72 -11 120 -19 49 -9 104 -18 123 -21 19 -3 82
-14 140 -24 107 -20 141 -26 195 -35 17 -3 50 -10 75 -15 25 -5 56 -12 70 -14
71 -13 295 -60 389 -81 40 -9 78 -18 85 -19 34 -8 308 -76 464 -117 586 -152
1277 -388 1807 -616 299 -129 742 -342 945 -455 25 -14 77 -42 115 -63 100
-54 327 -185 457 -265 l112 -68 41 31 c75 59 450 441 554 565 165 198 431 565
419 578 -3 2 -117 54 -254 115 -285 127 -618 262 -879 355 -99 36 -189 69
-200 74 -63 28 -620 199 -848 260 -154 41 -528 134 -587 145 -20 4 -258 54
-290 61 -14 3 -38 7 -55 10 -48 8 -71 12 -222 39 -79 14 -160 28 -180 31 -21
2 -67 9 -103 15 -105 17 -313 45 -405 55 -22 2 -56 6 -75 8 -19 3 -69 8 -110
11 -41 3 -86 8 -100 10 -14 2 -63 6 -110 10 -47 3 -103 8 -125 10 -22 3 -94 7
-160 10 -66 4 -140 8 -165 11 -49 5 -977 14 -982 9z"/>
<path d="M1553 3065 c33 -8 107 -29 165 -45 59 -17 123 -35 142 -40 653 -180
1222 -386 1930 -697 235 -104 776 -375 990 -497 41 -24 98 -56 125 -71 153
-84 520 -303 593 -354 15 -10 99 -66 187 -123 191 -126 551 -378 635 -445 8
-6 53 -40 100 -75 69 -52 219 -169 300 -235 8 -7 45 -37 82 -67 l67 -54 88 27
c266 83 528 188 793 320 244 121 430 234 727 441 l51 36 -71 44 c-70 42 -327
190 -332 190 -1 0 -55 30 -121 66 -106 59 -518 264 -649 324 -319 145 -662
285 -940 385 -139 50 -380 132 -410 139 -5 2 -17 6 -25 9 -15 6 -272 85 -300
92 -8 3 -69 20 -135 40 -142 42 -561 153 -640 170 -11 2 -49 11 -85 19 -204
47 -723 153 -790 162 -19 2 -55 8 -80 14 -25 5 -63 12 -85 14 -44 6 -71 11
-195 31 -47 8 -101 16 -120 19 -19 2 -73 9 -120 16 -47 7 -94 13 -105 15 -11
1 -47 6 -80 10 -33 3 -71 8 -85 10 -27 4 -99 13 -170 20 -110 12 -143 15 -187
21 -27 3 -70 7 -98 9 -27 3 -72 7 -100 9 -87 8 -208 18 -260 21 -27 2 -88 6
-135 9 -190 14 -291 19 -595 31 l-120 4 58 -14z"/>
<path d="M826 2823 c157 -272 330 -525 513 -748 36 -44 68 -82 71 -85 3 -3 43
-48 90 -100 171 -192 409 -418 594 -565 20 -16 43 -35 49 -40 46 -41 371 -275
381 -275 2 0 30 -18 62 -39 273 -181 753 -412 1099 -529 317 -107 520 -159
849 -218 11 -2 56 -8 100 -14 45 -6 92 -13 106 -15 41 -6 153 -18 190 -20 19
-2 82 -6 140 -11 185 -14 663 -8 795 10 17 2 64 7 105 11 41 3 86 8 100 10 14
3 39 7 55 9 274 43 289 46 298 55 8 8 -44 50 -263 215 -1418 1065 -3043 1839
-4761 2267 -187 46 -560 129 -583 129 -14 0 -12 -8 10 -47z"/>
</g>
</svg>
